# xmcd
#
# Track frame offsets: 
#        150
#        17285
#        32142
#        48480
#
# Disc length: 811 seconds
#
# Revision: 0
# Processed by: cddbd v1.5.2PL0 Copyright (c) Steve Scherf et al.
# Submitted via: ExactAudioCopyFreeDBPlugin 1.0
#
DISCID=25032904
DTITLE=Paul Carrack - How Long?
DYEAR=1998
DGENRE=Soul
TTITLE0=How Long
TTITLE1=Don't Dream It's Over
TTITLE2=Into The Mystic
TTITLE3=Love Me As Hard As You Can
EXTD=
EXTT0=
EXTT1=
EXTT2=
EXTT3=
PLAYORDER=
